<?xml version="1.0" encoding="UTF-8" standalone="no"?>
<!-- Created with Inkscape (http://www.inkscape.org/) -->

<svg
   width="516.87939mm"
   height="117.14798mm"
   viewBox="0 0 516.87939 117.14798"
   version="1.1"
   id="svg1894"
   xmlns="http://www.w3.org/2000/svg"
   xmlns:svg="http://www.w3.org/2000/svg">
  <defs
     id="defs1891" />
  <g
     id="layer1"
     transform="translate(170.08486,-32.974399)">
    <path
       d="m -102.44767,32.974399 19.647272,34.029367 -19.647272,-7.662187 z"
       id="path4"
       style="stroke-width:0.826557" />
    <path
       fill="#323232"
       d="m -102.44767,32.974399 -19.65553,34.029367 19.65553,-7.662187 z"
       id="path6"
       style="stroke-width:0.826557" />
    <path
       fill="#af0a19"
       d="m -102.44767,67.020297 22.540223,5.000672 18.80418,32.558091 -41.344403,-13.034806 z"
       id="path8"
       style="stroke-width:0.826557" />
    <path
       fill="#e10019"
       d="m -102.44767,67.020297 -22.54848,5.000672 -18.79592,32.558091 41.3444,-13.034806 z"
       id="path10"
       style="stroke-width:0.826557" />
    <path
       fill="#f5a005"
       d="m -102.44767,101.07446 v 34.05417 l 67.628928,14.99375 -22.54022,-39.05484 z"
       id="path12"
       style="stroke-width:0.826557" />
    <path
       fill="#ffc300"
       d="m -102.44767,101.07446 v 34.05417 l -67.63719,14.99375 22.54022,-39.05484 z"
       id="path14"
       style="stroke-width:0.826557" />
    <path
       d="m -17.874316,98.743569 h 10.1997185 c -0.1735771,7.521671 4.8353607,10.976681 12.3570328,10.976681 7.5216717,0 10.2823737,-4.0584 10.2823737,-8.20771 0,-6.571135 -7.9514819,-7.348099 -14.34903598,-8.984682 C -9.410368,89.932468 -16.411309,85.617838 -16.411309,75.674353 c 0,-9.158256 8.4722131,-16.41543 21.002823,-16.332774 13.481151,0.08266 21.515289,9.588066 21.341712,19.614207 H 16.171583 C 15.998006,73.508772 12.113186,67.979104 3.9881271,67.979104 c -6.8273639,0 -10.4559508,2.934278 -10.3732951,7.604327 0.090921,6.91002 11.1502591,8.034138 17.027082,9.678987 5.959479,1.64485 14.687925,5.182515 14.687925,16.332772 0,9.24918 -7.430751,16.50635 -19.961361,16.58901 -16.250118,0.0827 -23.854446,-8.98468 -23.242794,-19.440631 z m 61.107388,36.376791 h -9.93522 V 74.806468 h 8.811101 l 0.603387,6.653786 c 1.206774,-3.975741 6.306633,-7.686983 12.183456,-7.686983 14.175459,0 20.391171,12.274377 20.391171,22.465829 0,10.97668 -6.397554,22.29225 -20.482092,22.29225 -6.48021,0 -10.803105,-3.62858 -11.580069,-6.82736 v 23.41637 z M 65.095514,96.230835 c 0,-6.0504 -2.421813,-13.216653 -11.150259,-13.216653 -7.174518,0 -10.976682,5.356092 -10.976682,11.927223 v 3.281433 c 0,7.174522 4.926282,11.150262 10.976682,11.150262 7.695249,0 11.150259,-7.17452 11.150259,-13.134 z m 15.506217,-0.173577 c 0,-12.357033 9.0756,-22.556751 21.862439,-22.556751 12.78685,0 21.9451,10.199718 21.9451,22.556751 0,12.357032 -8.90202,22.556752 -21.86244,22.556752 -12.960421,0 -21.945099,-10.28238 -21.945099,-22.556752 z m 33.616089,0.173577 c 0,-6.736443 -3.88482,-13.737384 -11.66273,-13.737384 -7.7779,0 -11.753641,7.000941 -11.753641,13.737384 0,6.736445 3.628587,13.307575 11.753641,13.307575 8.12506,0 11.66273,-6.73644 11.66273,-13.307575 z m 38.60849,-12.009879 c -6.65378,-0.694308 -12.53061,0.694308 -12.53061,9.588066 v 23.680868 h -9.93522 V 74.798202 h 8.81111 l 0.60338,7.257174 c 1.55393,-5.876823 5.52967,-8.728446 13.05134,-8.034138 z m 20.30025,-19.705128 v 10.282374 h 10.88576 v 8.554869 h -10.88576 v 19.267049 c 0,5.00894 2.15732,6.48021 8.12506,6.48021 1.12412,0 2.15732,-0.0909 3.28144,-0.17357 v 8.47221 c -1.72751,0.25623 -3.45501,0.34715 -5.18252,0.34715 -9.85256,0 -15.98562,-4.32289 -15.98562,-14.08453 V 83.353071 h -6.48021 v -5.62059 c 9.42276,-2.678046 9.0756,-12.704187 9.0756,-13.224918 h 7.17452 z m 27.7558,-7.348095 v 22.895639 c 1.81843,-3.628586 6.30663,-6.306632 11.75365,-6.306632 9.67898,0 15.46489,6.223977 15.46489,16.679928 v 27.044962 h -9.93522 V 91.643441 c 0,-6.306632 -4.0584,-8.554869 -8.3813,-8.554869 -4.92628,0 -8.72844,3.372355 -8.72844,9.852564 v 24.540494 h -9.93522 V 57.167733 Z m 34.77327,5.182515 c 0,-3.802164 3.10786,-6.736443 6.91002,-6.736443 3.80216,0 6.91002,2.934279 6.91002,6.736443 0,3.802164 -3.10786,6.736442 -6.91002,6.736442 -3.80216,0 -6.91002,-2.934278 -6.91002,-6.736442 z m 11.8363,12.439688 v 42.691694 h -9.93522 V 74.789936 Z m 10.3485,27.392114 V 57.159467 h 9.93522 V 102.2647 c 0,4.67005 1.47127,6.91002 6.30663,6.65379 l 1.72751,-0.0827 v 8.81111 c -1.64485,0.0827 -2.42182,0.17357 -3.37236,0.17357 -10.62952,0 -14.60527,-5.95948 -14.60527,-15.63846 z m 46.98979,-45.973124 v 8.637525 h -4.3229 c -4.40555,0 -6.22398,1.380351 -6.22398,6.0504 v 3.88482 h 10.3733 v 8.554869 h -10.3733 v 34.13682 h -9.93522 V 83.33654 h -7.86056 v -8.554869 h 7.86056 v -3.802164 c 0,-10.282374 5.95948,-15.638466 17.36598,-14.952423 l 3.10785,0.173577 z m 41.96431,39.319335 -0.0909,2.851623 h -30.16108 c -0.25623,6.223976 4.23198,11.497416 10.97669,11.497416 3.45501,0 7.52167,-1.0332 8.98468,-5.95948 h 9.67898 c -1.7275,8.20771 -7.95148,14.51435 -18.58101,14.51435 -13.39023,0 -21.08548,-10.1088 -21.08548,-22.383178 0,-12.96042 7.68699,-22.292252 20.39117,-22.292252 8.90203,0 19.87871,5.356091 19.87871,21.779787 z m -29.81392,-4.231974 h 19.53155 c 0,-5.529669 -4.23197,-9.50541 -9.33183,-9.50541 -5.7859,0 -9.67899,4.231974 -10.19972,9.50541 z"
       id="path16"
       style="stroke-width:0.826557" />
  </g>
</svg>
