<?xml version="1.0" encoding="UTF-8" standalone="no"?>
<svg
   xmlns:dc="http://purl.org/dc/elements/1.1/"
   xmlns:cc="http://creativecommons.org/ns#"
   xmlns:rdf="http://www.w3.org/1999/02/22-rdf-syntax-ns#"
   xmlns:svg="http://www.w3.org/2000/svg"
   xmlns="http://www.w3.org/2000/svg"
   xmlns:sodipodi="http://sodipodi.sourceforge.net/DTD/sodipodi-0.dtd"
   xmlns:inkscape="http://www.inkscape.org/namespaces/inkscape"
   version="1.1"
   id="svg2"
   viewBox="0 0 319.99998 312.41417"
   height="88.170227mm"
   width="90.311111mm"
   inkscape:version="0.91 r13725"
   sodipodi:docname="Wasserfreunde Spandau 04.svg">
  <sodipodi:namedview
     pagecolor="#ffffff"
     bordercolor="#666666"
     borderopacity="1"
     objecttolerance="10"
     gridtolerance="10"
     guidetolerance="10"
     inkscape:pageopacity="0"
     inkscape:pageshadow="2"
     inkscape:window-width="1920"
     inkscape:window-height="1017"
     id="namedview116"
     showgrid="false"
     fit-margin-top="0"
     fit-margin-left="0"
     fit-margin-right="0"
     fit-margin-bottom="0"
     inkscape:zoom="1.0090673"
     inkscape:cx="2.4053994"
     inkscape:cy="41.344446"
     inkscape:window-x="-8"
     inkscape:window-y="-8"
     inkscape:window-maximized="1"
     inkscape:current-layer="svg2" />
  <defs
     id="defs4">
    <clipPath
       clipPathUnits="userSpaceOnUse"
       id="clipPath3498">
      <path
         d="m 33,33 595.276,0 0,841.89 L 33,874.89 33,33 Z"
         id="path3500"
         inkscape:connector-curvature="0" />
    </clipPath>
    <clipPath
       clipPathUnits="userSpaceOnUse"
       id="clipPath3518">
      <path
         d="m 33,33 595.276,0 0,841.89 L 33,874.89 33,33 Z"
         id="path3520"
         inkscape:connector-curvature="0" />
    </clipPath>
    <clipPath
       clipPathUnits="userSpaceOnUse"
       id="clipPath3538">
      <path
         d="m 33,33 595.276,0 0,841.89 L 33,874.89 33,33 Z"
         id="path3540"
         inkscape:connector-curvature="0" />
    </clipPath>
    <clipPath
       clipPathUnits="userSpaceOnUse"
       id="clipPath3558">
      <path
         d="m 33,33 595.276,0 0,841.89 L 33,874.89 33,33 Z"
         id="path3560"
         inkscape:connector-curvature="0" />
    </clipPath>
    <clipPath
       clipPathUnits="userSpaceOnUse"
       id="clipPath3578">
      <path
         d="m 33,33 595.276,0 0,841.89 L 33,874.89 33,33 Z"
         id="path3580"
         inkscape:connector-curvature="0" />
    </clipPath>
    <clipPath
       clipPathUnits="userSpaceOnUse"
       id="clipPath3594">
      <path
         d="m 33,33 595.276,0 0,841.89 L 33,874.89 33,33 Z"
         id="path3596"
         inkscape:connector-curvature="0" />
    </clipPath>
    <clipPath
       clipPathUnits="userSpaceOnUse"
       id="clipPath3614">
      <path
         d="m 33,33 595.276,0 0,841.89 L 33,874.89 33,33 Z"
         id="path3616"
         inkscape:connector-curvature="0" />
    </clipPath>
    <clipPath
       clipPathUnits="userSpaceOnUse"
       id="clipPath3630">
      <path
         d="m 33,33 595.276,0 0,841.89 L 33,874.89 33,33 Z"
         id="path3632"
         inkscape:connector-curvature="0" />
    </clipPath>
    <clipPath
       clipPathUnits="userSpaceOnUse"
       id="clipPath3646">
      <path
         d="m 33,33 595.276,0 0,841.89 L 33,874.89 33,33 Z"
         id="path3648"
         inkscape:connector-curvature="0" />
    </clipPath>
    <clipPath
       clipPathUnits="userSpaceOnUse"
       id="clipPath3662">
      <path
         d="m 33,33 595.276,0 0,841.89 L 33,874.89 33,33 Z"
         id="path3664"
         inkscape:connector-curvature="0" />
    </clipPath>
    <clipPath
       clipPathUnits="userSpaceOnUse"
       id="clipPath3678">
      <path
         d="m 33,33 595.276,0 0,841.89 L 33,874.89 33,33 Z"
         id="path3680"
         inkscape:connector-curvature="0" />
    </clipPath>
    <clipPath
       clipPathUnits="userSpaceOnUse"
       id="clipPath3694">
      <path
         d="m 33,33 595.276,0 0,841.89 L 33,874.89 33,33 Z"
         id="path3696"
         inkscape:connector-curvature="0" />
    </clipPath>
    <clipPath
       clipPathUnits="userSpaceOnUse"
       id="clipPath3710">
      <path
         d="m 530.197,780.707 67.918,0 0,66.166 -67.918,0 0,-66.166 z"
         id="path3712"
         inkscape:connector-curvature="0" />
    </clipPath>
    <clipPath
       clipPathUnits="userSpaceOnUse"
       id="clipPath3896">
      <path
         d="m 33,33 595.276,0 0,841.89 L 33,874.89 33,33 Z"
         id="path3898"
         inkscape:connector-curvature="0" />
    </clipPath>
    <clipPath
       clipPathUnits="userSpaceOnUse"
       id="clipPath3916">
      <path
         d="m 33,33 595.276,0 0,841.89 L 33,874.89 33,33 Z"
         id="path3918"
         inkscape:connector-curvature="0" />
    </clipPath>
    <clipPath
       clipPathUnits="userSpaceOnUse"
       id="clipPath3944">
      <path
         d="m 33,33 595.276,0 0,841.89 L 33,874.89 33,33 Z"
         id="path3946"
         inkscape:connector-curvature="0" />
    </clipPath>
    <clipPath
       clipPathUnits="userSpaceOnUse"
       id="clipPath3988">
      <path
         d="m 33,33 595.276,0 0,841.89 L 33,874.89 33,33 Z"
         id="path3990"
         inkscape:connector-curvature="0" />
    </clipPath>
    <clipPath
       clipPathUnits="userSpaceOnUse"
       id="clipPath4150">
      <path
         d="m 33,33 595.276,0 0,841.89 L 33,874.89 33,33 Z"
         id="path4152"
         inkscape:connector-curvature="0" />
    </clipPath>
    <clipPath
       clipPathUnits="userSpaceOnUse"
       id="clipPath4202">
      <path
         d="m 33,33 595.276,0 0,841.89 L 33,874.89 33,33 Z"
         id="path4204"
         inkscape:connector-curvature="0" />
    </clipPath>
    <clipPath
       clipPathUnits="userSpaceOnUse"
       id="clipPath4222">
      <path
         d="m 33,33 595.276,0 0,841.89 L 33,874.89 33,33 Z"
         id="path4224"
         inkscape:connector-curvature="0" />
    </clipPath>
    <clipPath
       clipPathUnits="userSpaceOnUse"
       id="clipPath4242">
      <path
         d="m 33,33 595.276,0 0,841.89 L 33,874.89 33,33 Z"
         id="path4244"
         inkscape:connector-curvature="0" />
    </clipPath>
    <clipPath
       clipPathUnits="userSpaceOnUse"
       id="clipPath4262">
      <path
         d="m 33,33 595.276,0 0,841.89 L 33,874.89 33,33 Z"
         id="path4264"
         inkscape:connector-curvature="0" />
    </clipPath>
    <clipPath
       clipPathUnits="userSpaceOnUse"
       id="clipPath4352">
      <path
         d="m 33,33 595.276,0 0,841.89 L 33,874.89 33,33 Z"
         id="path4354"
         inkscape:connector-curvature="0" />
    </clipPath>
    <clipPath
       clipPathUnits="userSpaceOnUse"
       id="clipPath4384">
      <path
         d="m 33,33 595.276,0 0,841.89 L 33,874.89 33,33 Z"
         id="path4386"
         inkscape:connector-curvature="0" />
    </clipPath>
    <clipPath
       clipPathUnits="userSpaceOnUse"
       id="clipPath4400">
      <path
         d="m 33,33 595.276,0 0,841.89 L 33,874.89 33,33 Z"
         id="path4402"
         inkscape:connector-curvature="0" />
    </clipPath>
    <clipPath
       clipPathUnits="userSpaceOnUse"
       id="clipPath4416">
      <path
         d="m 33,33 595.276,0 0,841.89 L 33,874.89 33,33 Z"
         id="path4418"
         inkscape:connector-curvature="0" />
    </clipPath>
    <clipPath
       clipPathUnits="userSpaceOnUse"
       id="clipPath4432">
      <path
         d="m 33,33 595.276,0 0,841.89 L 33,874.89 33,33 Z"
         id="path4434"
         inkscape:connector-curvature="0" />
    </clipPath>
    <clipPath
       clipPathUnits="userSpaceOnUse"
       id="clipPath4448">
      <path
         d="m 33,33 595.276,0 0,841.89 L 33,874.89 33,33 Z"
         id="path4450"
         inkscape:connector-curvature="0" />
    </clipPath>
    <clipPath
       clipPathUnits="userSpaceOnUse"
       id="clipPath3710-0">
      <path
         d="m 530.197,780.707 67.918,0 0,66.166 -67.918,0 0,-66.166 z"
         id="path3712-3"
         inkscape:connector-curvature="0" />
    </clipPath>
  </defs>
  <metadata
     id="metadata7">
    <rdf:RDF>
      <cc:Work
         rdf:about="">
        <dc:format>image/svg+xml</dc:format>
        <dc:type
           rdf:resource="http://purl.org/dc/dcmitype/StillImage" />
        <dc:title></dc:title>
      </cc:Work>
    </rdf:RDF>
  </metadata>
  <g
     transform="matrix(3.7781906,0,0,3.7781906,-266.39581,-360.07486)"
     id="layer1">
    <g
       transform="matrix(1.25,0,0,-1.25,-592.36844,1153.8766)"
       id="g3708"
       clip-path="url(#clipPath3710-0)">
      <g
         id="g5976">
        <g
           transform="translate(542.8896,785.3599)"
           id="g3714">
          <path
             id="path3716"
             style="fill:#d22027;fill-opacity:1;fill-rule:nonzero;stroke:none"
             d="m 0,0 c 0,2.182 -2.937,1.717 -2.937,2.969 0,0.496 0.393,0.847 1.168,0.847 0.425,0 0.86,-0.072 1.252,-0.186 l 0.073,1.18 c -0.414,0.073 -0.869,0.124 -1.262,0.124 -1.676,0 -2.657,-0.858 -2.657,-2.1 0,-2.295 2.925,-1.685 2.925,-3.02 0,-0.641 -0.527,-0.919 -1.209,-0.919 -0.506,0 -1.066,0.112 -1.458,0.247 l -0.083,-1.251 c 0.434,-0.115 0.93,-0.165 1.426,-0.165 C -1.045,-2.274 0,-1.314 0,0"
             inkscape:connector-curvature="0" />
        </g>
        <g
           transform="translate(546.7354,785.8984)"
           id="g3718">
          <path
             id="path3720"
             style="fill:#d22027;fill-opacity:1;fill-rule:evenodd;stroke:none"
             d="m 0,0 c 0,-1.272 -0.538,-1.748 -1.293,-1.748 -0.269,0 -0.485,0.031 -0.692,0.094 l 0,1.427 c 0,0.878 0.414,1.685 1.106,1.685 C -0.278,1.458 0,0.962 0,0 m -3.299,1.427 0,-6.618 1.314,0 0,2.461 c 0.216,-0.032 0.414,-0.041 0.662,-0.041 1.778,0 2.71,1.127 2.71,2.915 0,1.521 -0.662,2.4 -1.884,2.4 -0.774,0 -1.323,-0.362 -1.612,-0.962 l -0.022,0 c 0.042,0.269 0.053,0.611 0.053,0.869 -0.684,0.021 -1.469,-0.011 -2.12,-0.094 l 0,-0.827 c 0.3,-0.02 0.651,-0.061 0.899,-0.103"
             inkscape:connector-curvature="0" />
        </g>
        <g
           transform="translate(551.2324,785.3506)"
           id="g3722">
          <path
             id="path3724"
             style="fill:#d22027;fill-opacity:1;fill-rule:evenodd;stroke:none"
             d="m 0,0 c 0,-0.621 -0.444,-1.241 -1.097,-1.241 -0.382,0 -0.609,0.216 -0.609,0.547 0,0.415 0.309,0.818 1.706,0.818 L 0,0 m 2.224,-2.068 0,0.827 c -0.3,0.021 -0.653,0.061 -0.901,0.103 l 0,2.452 c 0,1.126 -0.466,1.788 -2.119,1.788 -0.662,0 -1.323,-0.134 -1.842,-0.321 L -2.523,1.675 C -2.09,1.923 -1.47,2.078 -1.003,2.078 -0.26,2.078 0,1.799 0,1.261 L 0,0.982 c -1.748,0 -2.969,-0.652 -2.969,-1.882 0,-0.828 0.538,-1.355 1.469,-1.355 0.766,0 1.396,0.404 1.645,0.983 l 0.009,-0.011 c -0.04,-0.269 -0.05,-0.579 -0.05,-0.879 0.671,-0.02 1.467,0.011 2.12,0.094"
             inkscape:connector-curvature="0" />
        </g>
        <g
           transform="translate(555.3555,788.3491)"
           id="g3726">
          <path
             id="path3728"
             style="fill:#d22027;fill-opacity:1;fill-rule:nonzero;stroke:none"
             d="m 0,0 c -0.693,0.021 -1.489,-0.011 -2.141,-0.093 l 0,-0.828 c 0.3,-0.02 0.652,-0.061 0.901,-0.102 l 0,-4.127 1.312,0 0,2.482 c 0,0.9 0.528,1.665 1.2,1.665 0.486,0 0.631,-0.321 0.631,-0.858 l 0,-3.289 1.314,0 0,3.609 c 0,0.899 -0.372,1.644 -1.531,1.644 -0.838,0 -1.439,-0.423 -1.749,-1.033 l -0.009,0.009 C -0.021,-0.651 0,-0.248 0,0"
             inkscape:connector-curvature="0" />
        </g>
        <g
           transform="translate(562.6104,785.8667)"
           id="g3730">
          <path
             id="path3732"
             style="fill:#d22027;fill-opacity:1;fill-rule:evenodd;stroke:none"
             d="m 0,0 c 0,-0.878 -0.414,-1.685 -1.105,-1.685 -0.602,0 -0.88,0.496 -0.88,1.458 0,1.272 0.536,1.749 1.292,1.749 0.228,0 0.456,-0.032 0.693,-0.084 L 0,0 m 2.213,-2.585 0,0.828 c -0.3,0.021 -0.651,0.061 -0.899,0.103 l 0,6.546 C 0.56,4.913 -0.248,4.883 -0.899,4.8 l 0,-0.827 C -0.6,3.951 -0.248,3.91 0,3.869 L 0,2.524 c -0.227,0.031 -0.434,0.041 -0.651,0.041 -1.707,0 -2.721,-1.199 -2.721,-2.936 0,-1.469 0.621,-2.41 1.872,-2.41 0.786,0 1.355,0.402 1.624,0.972 l 0.022,0 c -0.042,-0.28 -0.064,-0.61 -0.064,-0.869 0.684,-0.02 1.48,0.011 2.131,0.093"
             inkscape:connector-curvature="0" />
        </g>
        <g
           transform="translate(567.8838,785.3506)"
           id="g3734">
          <path
             id="path3736"
             style="fill:#d22027;fill-opacity:1;fill-rule:evenodd;stroke:none"
             d="m 0,0 c 0,-0.621 -0.445,-1.241 -1.096,-1.241 -0.384,0 -0.611,0.216 -0.611,0.547 0,0.415 0.31,0.818 1.707,0.818 L 0,0 m 2.224,-2.068 0,0.827 c -0.301,0.021 -0.652,0.061 -0.9,0.103 l 0,2.452 c 0,1.126 -0.466,1.788 -2.121,1.788 -0.662,0 -1.323,-0.134 -1.84,-0.321 L -2.523,1.675 C -2.09,1.923 -1.469,2.078 -1.004,2.078 -0.259,2.078 0,1.799 0,1.261 L 0,0.982 c -1.748,0 -2.968,-0.652 -2.968,-1.882 0,-0.828 0.537,-1.355 1.468,-1.355 0.766,0 1.396,0.404 1.644,0.983 L 0.155,-1.283 C 0.113,-1.552 0.103,-1.862 0.103,-2.162 c 0.671,-0.02 1.469,0.011 2.121,0.094"
             inkscape:connector-curvature="0" />
        </g>
        <g
           transform="translate(576.0293,783.2817)"
           id="g3738">
          <path
             id="path3740"
             style="fill:#d22027;fill-opacity:1;fill-rule:nonzero;stroke:none"
             d="M 0,0 0,0.827 C -0.3,0.848 -0.651,0.889 -0.899,0.93 l 0,4.127 -1.313,0 0,-2.482 c 0,-0.9 -0.527,-1.665 -1.2,-1.665 -0.486,0 -0.632,0.321 -0.632,0.858 l 0,3.299 c -0.715,0.021 -1.53,-0.01 -2.212,-0.093 l 0,-0.827 c 0.299,-0.02 0.64,-0.062 0.89,-0.103 l 0,-2.597 c 0,-0.899 0.372,-1.643 1.541,-1.643 0.837,0 1.437,0.423 1.735,1.034 L -2.067,0.827 C -2.121,0.537 -2.132,0.144 -2.132,-0.093 -1.446,-0.114 -0.651,-0.083 0,0"
             inkscape:connector-curvature="0" />
        </g>
        <g
           transform="translate(582.7168,785.877)"
           id="g3742">
          <path
             id="path3744"
             style="fill:#d22027;fill-opacity:1;fill-rule:evenodd;stroke:none"
             d="m 0,0 c 0,-1.044 -0.651,-1.654 -1.406,-1.654 -0.961,0 -1.387,0.703 -1.387,1.654 0,1.023 0.644,1.624 1.418,1.624 C -0.455,1.624 0,0.952 0,0 m 1.324,0.032 c 0,1.386 -0.692,2.708 -2.647,2.708 -1.47,0 -2.782,-1.054 -2.782,-2.822 0,-1.976 1.168,-2.709 2.605,-2.709 1.521,0 2.824,1.054 2.824,2.823"
             inkscape:connector-curvature="0" />
        </g>
        <g
           transform="translate(587.3262,784.3887)"
           id="g3746">
          <path
             id="path3748"
             style="fill:#d22027;fill-opacity:1;fill-rule:evenodd;stroke:none"
             d="M 0,0 C -0.319,0 -1.335,0 -1.778,-0.021 L -0.011,2.874 0,2.874 0,0 m 2.368,-1.189 0,1.189 -1.096,0 0,4.146 -1.675,0 -2.648,-4.26 0.217,-1.075 2.804,0 0,-1.893 1.302,0 0,1.893 1.096,0 z"
             inkscape:connector-curvature="0" />
        </g>
        <g
           transform="translate(541.2344,798.7983)"
           id="g3750">
          <path
             id="path3752"
             style="fill:#231f20;fill-opacity:1;fill-rule:nonzero;stroke:none"
             d="m 0,0 -1.344,0 -0.952,-3.899 c -0.103,-0.414 -0.186,-0.849 -0.258,-1.335 l -0.011,0 c -0.062,0.486 -0.175,0.973 -0.279,1.356 L -3.919,0 -5.346,0 -6.412,-3.899 C -6.536,-4.344 -6.608,-4.81 -6.681,-5.274 l -0.01,0 c -0.062,0.486 -0.145,0.961 -0.259,1.416 L -7.901,0 l -1.438,0 1.778,-6.982 1.563,0 1.013,3.879 c 0.125,0.465 0.207,0.919 0.258,1.406 l 0.011,0 c 0.071,-0.496 0.145,-0.992 0.269,-1.437 l 1.013,-3.848 1.655,0 L 0,0"
             inkscape:connector-curvature="0" />
        </g>
        <g
           transform="translate(543.7979,793.9688)"
           id="g3754">
          <path
             id="path3756"
             style="fill:#231f20;fill-opacity:1;fill-rule:evenodd;stroke:none"
             d="m 0,0 c 0,-0.621 -0.443,-1.243 -1.096,-1.243 -0.382,0 -0.61,0.218 -0.61,0.549 0,0.413 0.31,0.818 1.706,0.818 L 0,0 m 2.225,-2.07 0,0.827 c -0.3,0.022 -0.653,0.063 -0.901,0.105 l 0,2.452 c 0,1.126 -0.465,1.789 -2.12,1.789 -0.662,0 -1.323,-0.136 -1.841,-0.322 l 0.115,-1.106 c 0.434,0.248 1.054,0.403 1.519,0.403 C -0.258,2.078 0,1.799 0,1.261 L 0,0.982 c -1.746,0 -2.968,-0.652 -2.968,-1.882 0,-0.828 0.538,-1.356 1.469,-1.356 0.766,0 1.396,0.404 1.645,0.982 l 0.01,-0.009 C 0.114,-1.553 0.104,-1.862 0.104,-2.162 0.776,-2.184 1.572,-2.153 2.225,-2.07"
             inkscape:connector-curvature="0" />
        </g>
        <g
           transform="translate(549.5781,793.4092)"
           id="g3758">
          <path
             id="path3760"
             style="fill:#231f20;fill-opacity:1;fill-rule:nonzero;stroke:none"
             d="m 0,0 c 0,1.666 -2.109,1.294 -2.109,2.131 0,0.32 0.249,0.528 0.765,0.528 0.321,0 0.662,-0.053 0.951,-0.134 l 0.042,1.044 c -0.31,0.051 -0.64,0.092 -0.941,0.092 -1.447,0 -2.183,-0.744 -2.183,-1.644 0,-1.747 2.079,-1.231 2.079,-2.141 0,-0.341 -0.331,-0.548 -0.837,-0.548 -0.394,0 -0.787,0.072 -1.107,0.156 l -0.03,-1.087 c 0.331,-0.051 0.702,-0.093 1.074,-0.093 C -0.889,-1.696 0,-1.013 0,0"
             inkscape:connector-curvature="0" />
        </g>
        <g
           transform="translate(553.21,793.4092)"
           id="g3762">
          <path
             id="path3764"
             style="fill:#231f20;fill-opacity:1;fill-rule:nonzero;stroke:none"
             d="m 0,0 c 0,1.666 -2.109,1.294 -2.109,2.131 0,0.32 0.248,0.528 0.764,0.528 0.322,0 0.662,-0.053 0.951,-0.134 l 0.042,1.044 c -0.31,0.051 -0.641,0.092 -0.94,0.092 -1.448,0 -2.183,-0.744 -2.183,-1.644 0,-1.747 2.079,-1.231 2.079,-2.141 0,-0.341 -0.332,-0.548 -0.838,-0.548 -0.393,0 -0.786,0.072 -1.106,0.156 L -3.371,-1.603 C -3.04,-1.654 -2.668,-1.696 -2.295,-1.696 -0.89,-1.696 0,-1.013 0,0"
             inkscape:connector-curvature="0" />
        </g>
        <g
           transform="translate(556.7695,795.0742)"
           id="g3766">
          <path
             id="path3768"
             style="fill:#231f20;fill-opacity:1;fill-rule:evenodd;stroke:none"
             d="M 0,0 -1.893,0 C -1.82,0.621 -1.438,1.025 -0.891,1.025 -0.331,1.025 0.02,0.642 0,0 m 1.313,-0.299 c 0,1.271 -0.661,2.295 -2.161,2.295 -1.541,0 -2.41,-1.158 -2.41,-2.73 0,-1.81 0.91,-2.627 2.544,-2.627 0.642,0 1.293,0.114 1.842,0.332 L 1.003,-2.006 C 0.559,-2.213 0.01,-2.327 -0.496,-2.327 c -0.951,0 -1.428,0.466 -1.417,1.428 l 3.184,0 c 0.032,0.216 0.042,0.423 0.042,0.6"
             inkscape:connector-curvature="0" />
        </g>
        <g
           transform="translate(560.4082,796.9683)"
           id="g3770">
          <path
             id="path3772"
             style="fill:#231f20;fill-opacity:1;fill-rule:nonzero;stroke:none"
             d="m 0,0 c -0.693,0.02 -1.489,-0.011 -2.142,-0.093 l 0,-0.829 c 0.3,-0.02 0.653,-0.061 0.901,-0.102 l 0,-4.127 1.313,0 0,2.1 c 0,1.427 0.476,2.048 1.428,1.852 l 0.061,1.303 c -0.89,0.071 -1.385,-0.497 -1.633,-1.15 l -0.022,0 C -0.031,-0.683 0,-0.269 0,0"
             inkscape:connector-curvature="0" />
        </g>
        <g
           transform="translate(565.9805,799.3677)"
           id="g3774">
          <path
             id="path3776"
             style="fill:#231f20;fill-opacity:1;fill-rule:nonzero;stroke:none"
             d="m 0,0 c -0.269,0.062 -0.559,0.083 -0.838,0.083 -1.407,0 -2.047,-0.683 -2.047,-2.08 l 0,-0.414 -0.901,0 0,-1.022 0.901,0 0,-4.117 1.312,0 0,4.117 1.2,0 0,1.022 -1.2,0 0,0.435 c 0,0.682 0.259,0.982 0.838,0.982 0.196,0 0.434,-0.02 0.642,-0.093 L 0,0"
             inkscape:connector-curvature="0" />
        </g>
        <g
           transform="translate(567.9834,796.9683)"
           id="g3778">
          <path
             id="path3780"
             style="fill:#231f20;fill-opacity:1;fill-rule:nonzero;stroke:none"
             d="m 0,0 c -0.692,0.02 -1.49,-0.011 -2.141,-0.093 l 0,-0.829 c 0.3,-0.02 0.651,-0.061 0.899,-0.102 l 0,-4.127 1.314,0 0,2.1 c 0,1.427 0.475,2.048 1.427,1.852 L 1.563,0.104 C 0.671,0.175 0.175,-0.393 -0.073,-1.046 l -0.02,0 C -0.031,-0.683 0,-0.269 0,0"
             inkscape:connector-curvature="0" />
        </g>
        <g
           transform="translate(572.6768,795.0742)"
           id="g3782">
          <path
             id="path3784"
             style="fill:#231f20;fill-opacity:1;fill-rule:evenodd;stroke:none"
             d="M 0,0 -1.893,0 C -1.82,0.621 -1.438,1.025 -0.89,1.025 -0.331,1.025 0.021,0.642 0,0 m 1.313,-0.299 c 0,1.271 -0.662,2.295 -2.161,2.295 -1.54,0 -2.41,-1.158 -2.41,-2.73 0,-1.81 0.91,-2.627 2.544,-2.627 0.642,0 1.293,0.114 1.84,0.332 l -0.124,1.023 c -0.444,-0.207 -0.991,-0.321 -1.497,-0.321 -0.953,0 -1.429,0.466 -1.418,1.428 l 3.185,0 c 0.032,0.216 0.041,0.423 0.041,0.6"
             inkscape:connector-curvature="0" />
        </g>
        <g
           transform="translate(580.3066,791.8994)"
           id="g3786">
          <path
             id="path3788"
             style="fill:#231f20;fill-opacity:1;fill-rule:nonzero;stroke:none"
             d="M 0,0 0,0.827 C -0.299,0.848 -0.65,0.89 -0.898,0.931 l 0,4.127 -1.315,0 0,-2.483 c 0,-0.899 -0.526,-1.665 -1.2,-1.665 -0.484,0 -0.631,0.321 -0.631,0.859 l 0,3.3 c -0.713,0.02 -1.53,-0.011 -2.212,-0.094 l 0,-0.827 c 0.299,-0.021 0.641,-0.062 0.89,-0.103 l 0,-2.596 c 0,-0.901 0.371,-1.644 1.54,-1.644 0.838,0 1.438,0.422 1.737,1.033 L -2.066,0.827 C -2.119,0.539 -2.13,0.145 -2.13,-0.092 -1.447,-0.114 -0.65,-0.083 0,0"
             inkscape:connector-curvature="0" />
        </g>
        <g
           transform="translate(582.335,796.9683)"
           id="g3790">
          <path
             id="path3792"
             style="fill:#231f20;fill-opacity:1;fill-rule:nonzero;stroke:none"
             d="m 0,0 c -0.694,0.02 -1.489,-0.011 -2.141,-0.093 l 0,-0.829 c 0.3,-0.02 0.652,-0.061 0.9,-0.102 l 0,-4.127 1.313,0 0,2.483 c 0,0.899 0.529,1.665 1.2,1.665 0.486,0 0.631,-0.322 0.631,-0.859 l 0,-3.289 1.314,0 0,3.609 c 0,0.9 -0.374,1.646 -1.531,1.646 -0.839,0 -1.439,-0.425 -1.749,-1.035 l -0.009,0.009 C -0.021,-0.651 0,-0.248 0,0"
             inkscape:connector-curvature="0" />
        </g>
        <g
           transform="translate(589.5391,794.4854)"
           id="g3794">
          <path
             id="path3796"
             style="fill:#231f20;fill-opacity:1;fill-rule:evenodd;stroke:none"
             d="m 0,0 c 0,-0.88 -0.412,-1.686 -1.104,-1.686 -0.602,0 -0.881,0.496 -0.881,1.459 0,1.273 0.539,1.747 1.293,1.747 0.227,0 0.456,-0.031 0.692,-0.083 L 0,0 m 2.215,-2.587 0,0.828 c -0.302,0.021 -0.652,0.063 -0.901,0.104 l 0,6.546 C 0.561,4.911 -0.246,4.882 -0.898,4.799 l 0,-0.827 C -0.6,3.951 -0.246,3.909 0,3.868 L 0,2.524 c -0.227,0.03 -0.434,0.039 -0.65,0.039 -1.706,0 -2.721,-1.198 -2.721,-2.935 0,-1.469 0.621,-2.41 1.871,-2.41 0.786,0 1.356,0.403 1.624,0.972 l 0.022,0 C 0.105,-2.089 0.083,-2.421 0.083,-2.679 c 0.684,-0.021 1.48,0.01 2.132,0.092"
             inkscape:connector-curvature="0" />
        </g>
        <g
           transform="translate(595.0117,795.0742)"
           id="g3798">
          <path
             id="path3800"
             style="fill:#231f20;fill-opacity:1;fill-rule:evenodd;stroke:none"
             d="M 0,0 -1.893,0 C -1.82,0.621 -1.438,1.025 -0.89,1.025 -0.33,1.025 0.021,0.642 0,0 m 1.313,-0.299 c 0,1.271 -0.662,2.295 -2.161,2.295 -1.541,0 -2.411,-1.158 -2.411,-2.73 0,-1.81 0.91,-2.627 2.544,-2.627 0.643,0 1.295,0.114 1.841,0.332 l -0.123,1.023 c -0.444,-0.207 -0.991,-0.321 -1.497,-0.321 -0.955,0 -1.43,0.466 -1.419,1.428 l 3.186,0 c 0.03,0.216 0.04,0.423 0.04,0.6"
             inkscape:connector-curvature="0" />
        </g>
        <g
           transform="translate(551.0977,840.5796)"
           id="g3802">
          <path
             id="path3804"
             style="fill:#d22027;fill-opacity:1;fill-rule:nonzero;stroke:none"
             d="m 0,0 c 0.217,0 0.681,-0.055 0.989,-0.062 0.085,-0.071 0.093,-0.031 0.093,-0.185 0,-0.155 -0.186,-0.371 -0.186,-0.526 0,-0.155 -0.431,-0.773 -0.585,-0.773 -0.156,0 -0.279,-0.247 -0.279,-0.371 0,-0.155 -1.127,-1.356 -1.841,-1.98 -0.023,-0.023 -0.201,-0.186 -0.286,-0.271 -0.27,-0.067 -0.389,-0.404 -0.44,-0.402 -0.052,-0.055 -0.237,-0.262 -0.34,-0.378 -0.127,-0.14 -0.332,-0.375 -0.447,-0.487 -0.112,-0.107 -1.607,-1.153 -2.058,-1.739 -0.043,-0.055 -0.456,-0.391 -0.932,-1.043 -0.222,-0.163 -0.518,-0.647 -0.725,-0.957 -0.48,-1.172 -0.414,-1.023 -0.724,-1.682 l -0.541,-1.645 c 0.004,-0.124 -0.367,-1.363 -0.355,-1.526 -0.032,-0.183 -0.15,-0.959 -0.15,-1.114 0,-0.155 -0.016,-0.759 -0.016,-0.914 0,-0.154 0.332,-1.594 0.397,-1.733 0.077,-0.164 0.381,-0.853 0.499,-1.015 0.076,-0.264 0.441,-0.891 0.549,-1.057 0.085,-0.13 0.582,-0.865 1.279,-1.487 0.55,-0.643 2.943,-1.639 2.943,-1.639 0.205,-0.194 1.546,-0.459 1.695,-0.498 0.382,-0.1 1.699,-0.251 2.344,-0.149 1.349,0.163 2.791,0.971 2.912,1.109 0.082,0.009 0.658,0.384 0.812,0.384 0.155,0 1.876,1.531 2.11,2.014 0.548,0.398 1.495,2.409 1.495,2.841 0,0.155 0.233,1.459 0.199,1.771 -0.017,0.154 0,0.401 0,0.556 0,0.155 -0.104,1.311 -0.133,1.462 -0.149,0.798 -0.545,1.27 -0.639,1.407 -0.41,0.665 -1.814,1.464 -1.962,1.505 -0.143,0.039 -0.574,0.194 -0.822,0.194 -1.121,0 -1.841,-0.674 -1.881,-0.621 -0.34,-0.392 -1.5,-0.608 -2.045,-0.64 -0.156,-0.009 -0.604,0.025 -0.712,0.025 -0.154,0 -0.264,0.084 -0.395,0.124 -0.276,0.103 -0.834,0.334 -1.039,0.595 -0.149,0.191 -0.824,1.251 -0.824,1.405 0,0.155 -0.216,0.597 -0.216,0.751 0,0.247 -0.072,0.715 -0.033,0.948 -0.06,0.105 0.221,1.135 0.28,1.255 0.016,0.494 0.557,1.322 0.576,1.413 0,0 0.671,1.13 0.837,1.329 0.317,0.332 0.975,0.759 0.985,0.844 0.247,0.24 1.143,0.758 1.143,0.758 0.395,0.17 1.163,0.442 1.686,0.534 1.027,0.182 1.554,0.041 1.7,0.038 0.721,0.036 2.071,-0.347 2.227,-0.347 0.155,0 0.985,-0.265 1.261,-0.367 0.196,-0.072 1.933,-0.812 2.217,-0.925 0.721,-0.505 1.513,-1 1.611,-1.167 0.326,-0.162 1.048,-1.163 1.528,-1.777 0.204,-0.261 0.838,-1.71 1.065,-2.244 0.389,-0.913 0.466,-2.031 0.51,-2.314 0.101,-0.638 0.173,-1.753 0.173,-1.908 0,-0.155 0.018,-0.861 -0.018,-1.396 0,0 -0.142,-1.606 -0.149,-1.961 -0.004,-0.159 -0.313,-1.899 -0.415,-2.26 -0.111,-0.387 -0.718,-2.129 -0.965,-2.809 -0.053,-0.146 -0.369,-0.457 -0.419,-0.779 0,0 -0.502,-1.012 -0.625,-1.152 -0.227,-0.915 -2.119,-2.54 -2.262,-2.682 -0.188,-0.118 -0.357,-0.388 -0.449,-0.501 -0.087,0.07 -0.594,-0.471 -1.039,-0.72 -0.344,-0.086 -0.835,-0.703 -1.189,-0.703 -0.156,0 -1.029,-0.618 -1.238,-0.618 -0.154,0 -0.401,-0.124 -0.556,-0.124 -0.155,0 -1.392,-0.557 -1.608,-0.557 -0.155,0 -0.711,-0.154 -0.714,-0.228 -0.068,-0.072 -0.492,0.012 -0.501,-0.133 -0.084,-0.01 -1.198,-0.257 -1.507,-0.257 -0.154,0 -1.112,-0.124 -1.421,-0.124 l -1.175,0 -0.618,0 c -0.156,0 -1.293,0.152 -1.449,0.152 -0.154,0 -2.158,0.578 -2.127,0.548 -0.513,0.03 -1.749,0.665 -1.794,0.665 -0.155,0 -1.678,0.781 -2.115,0.924 -0.146,0.047 -1.181,0.646 -1.326,0.788 -0.374,0.411 -1.462,1.097 -1.745,1.479 -0.227,0.308 -1.33,1.536 -1.479,1.745 -0.194,0.272 -1.761,2.892 -1.912,3.471 -0.032,0.122 -0.448,0.883 -0.581,1.465 -0.045,0.199 -0.283,1.341 -0.283,1.38 0,0.154 -0.063,1.391 -0.063,1.545 0,0.155 0.061,0.65 0.061,0.804 0,0.155 0.247,1.383 0.356,1.553 l 0.331,1.149 c 0.118,0.266 0.357,1.116 0.55,1.411 0.085,0.129 0.185,0.455 0.216,0.548 0.224,0.572 0.736,1.677 0.882,1.817 0.101,0.232 0.448,0.718 0.512,0.844 0.084,0.137 0.4,0.632 0.817,1.011 0,0 0.58,0.617 0.68,0.719 0.025,0.037 0.778,0.604 0.674,0.541 0.22,0.313 2.604,1.862 2.748,1.94 0.135,0.074 0.993,0.541 0.993,0.541 0.154,0.002 1.043,0.418 1.198,0.418 0.154,0 0.441,0.557 1.021,0.557 0.154,0 1.198,0.372 1.206,0.372 0.154,0 0.371,0.061 0.525,0.061 0.154,0 0.757,0.248 0.897,0.248 0.154,0 0.371,0.068 0.371,0.068 0,0 1.739,0.859 1.824,0.859 C -0.216,-0.062 -0.101,0 0,0"
             inkscape:connector-curvature="0" />
        </g>
        <g
           transform="translate(578.2402,826.7539)"
           id="g3806">
          <path
             id="path3808"
             style="fill:#231f20;fill-opacity:1;fill-rule:nonzero;stroke:none"
             d="m 0,0 c 0,0 1.826,0.065 2.317,-0.004 0.15,-0.021 0.414,-0.206 0.56,0.155 0.667,1.161 2.586,3.375 2.877,3.715 0.098,0.114 1.122,1.079 1.346,1.315 0.139,0.147 2.924,2.428 3.486,2.815 0.292,0.109 0.805,0.459 0.998,0.517 0.465,0.152 0.819,0.336 1.305,0.206 C 13.033,8.681 13.301,8.55 13.527,8.35 13.597,8.172 13.631,8.019 13.563,7.763 13.386,7.503 12.392,6.634 12.318,6.358 12.279,6.214 11.373,5.088 11.165,4.853 10.804,4.471 9.09,1.587 8.991,0.531 8.979,0.389 8.896,0.068 8.917,-0.074 c 0.057,-0.299 1.635,-0.6 1.766,-0.606 0,0 1.684,-0.423 1.86,-0.489 0.14,-0.054 2.299,-0.85 2.438,-0.904 0.132,-0.052 0.385,-0.125 0.507,-0.168 0.078,-0.02 1.127,-0.551 1.266,-0.605 0.142,-0.054 0.931,-0.646 1.01,-0.763 0.208,-0.156 0.302,-0.564 0.322,-0.872 -0.037,-0.139 -0.007,-0.389 -0.138,-0.525 -0.202,-0.213 -0.519,-0.156 -0.551,-0.225 -0.124,-0.02 -1.569,-0.154 -1.674,-0.17 0,0 -1.518,-0.091 -1.619,-0.061 -0.155,-0.029 -1.898,-0.067 -2.047,-0.061 -0.309,0.014 -1.614,-0.166 -1.661,-0.152 C 10.33,-5.707 7.151,-6.151 6.615,-6.511 6.562,-6.545 5.698,-6.806 5.369,-7.186 5.187,-7.4 4.627,-8.656 4.574,-8.796 4.52,-8.936 4.103,-9.964 4.049,-10.104 c -0.055,-0.14 -0.846,-1.722 -0.861,-1.661 -0.179,-0.133 -0.384,-0.911 -0.535,-1.303 -0.053,-0.14 0.011,0.027 -0.042,-0.113 0,0 -3.18,-6.257 -3.304,-6.554 -0.062,-0.266 -0.21,-0.425 -0.304,-0.665 -0.27,-0.287 -0.541,-1.076 -0.594,-1.216 -0.055,-0.14 -0.125,-0.263 -0.125,-0.263 -0.051,-0.141 -0.752,-1.52 -0.805,-1.66 -0.055,-0.14 -0.619,-1.196 -0.671,-1.338 -0.121,-0.315 -0.701,-0.968 -1.1,-1.547 -0.104,-0.105 -0.287,-0.109 -0.357,-0.071 -0.037,0.064 -0.084,0.163 -0.033,0.303 0.055,0.14 -0.123,0.45 -0.069,0.588 0.056,0.141 -0.085,0.29 -0.059,0.449 0,0 0.038,1.96 0.091,2.1 0.054,0.141 -0.244,0.935 -0.318,0.973 -0.138,0.182 0.02,0.465 -0.109,0.569 -0.012,0.162 0.024,0.738 0.08,0.878 0.052,0.14 0.128,1.422 0.084,1.894 0.054,0.246 0.126,0.497 0.179,0.636 0.055,0.14 0.064,0.33 0.117,0.471 0.053,0.138 0.468,1.909 0.531,2.07 0.053,0.139 0.532,1.469 0.579,1.629 0,0 0.539,1.318 0.61,1.451 0.32,0.606 0.733,1.741 0.786,1.881 0.054,0.14 1.025,2.142 0.956,2.344 -0.214,0.39 -3.204,-0.289 -3.429,-0.294 -0.327,-0.063 -1.607,-0.156 -3.286,0.135 -0.596,0.103 -1.787,0.899 -1.764,1.197 0.002,0.022 -0.818,0.769 -1.004,1.142 -0.241,0.485 -0.656,2.319 0.047,3.568 -0.032,0.063 0.611,1.589 0.611,1.589 0,0 1.443,3.065 1.488,3.184 0.054,0.14 1.782,3.217 1.834,3.357 0.054,0.14 2.371,3.806 2.423,3.946 0.053,0.14 0.85,1.348 0.894,1.46 0.051,0.132 1.767,2.431 1.82,2.571 0.008,0.02 1.232,1.658 1.324,1.776 0.445,0.561 1.603,1.651 1.777,1.842 1.135,1.249 2.599,1.999 2.796,2.175 0.858,0.515 1.48,0.633 2.256,0.697 0.208,0.017 1.042,0.034 1.186,-0.006 1.06,-0.287 1.687,-0.633 1.83,-0.72 0.127,-0.078 1.1,-0.931 1.139,-1.489 0.052,-0.103 0.346,-0.633 0.346,-1.441 C 11.076,16.201 10.929,15.218 10.66,14.733 10.503,14.452 10.461,14.111 10.306,13.886 10.292,13.868 9.994,13.385 9.619,13.161 9.435,12.916 8.688,12.343 8.688,12.343 c 0,0 -0.892,-0.461 -1.133,-0.649 C 7.417,11.588 5.427,10.398 4.938,9.98 4.753,9.873 2.586,8.08 2.56,8.015 2.472,7.974 1.07,6.64 1.018,6.5 0.962,6.36 -0.547,4.79 -0.601,4.65 -0.653,4.51 -2.646,1.645 -2.699,1.504 -2.753,1.365 -3.796,-0.093 -3.75,-0.23 -3.655,-0.094 -0.272,-0.017 0,0"
             inkscape:connector-curvature="0" />
        </g>
        <g
           transform="translate(561.5957,817.5898)"
           id="g3810">
          <path
             id="path3812"
             style="fill:#a2a9a1;fill-opacity:1;fill-rule:evenodd;stroke:none"
             d="m 0,0 c 0.185,0 1.4,-0.019 1.799,-0.094 0.072,-0.014 1.941,-0.271 2.124,-0.305 0.424,-0.08 1.82,-0.383 3.525,-1.331 0.401,-0.212 0.889,-0.669 0.889,-0.669 0,0 1.192,-0.986 1.277,-1.085 0.181,-0.211 3.542,-2.895 4.67,-3.899 0.13,-0.114 0.781,-0.343 1.027,-0.293 1.072,0.221 2.347,2.666 2.413,3.108 0.11,0.739 2.143,2.852 3.281,2.852 0.184,0 0.889,0.238 1.207,0.261 0.223,0.017 1.265,0.104 2.193,0.032 0.278,-0.021 1.662,-0.24 2.088,-0.384 0.902,-0.335 2.583,-0.857 2.724,-1.039 1.167,-0.609 3.139,-1.888 4.533,-2.779 1.038,-0.604 2.77,-2.525 2.712,-3.187 -0.066,-0.774 -1.488,-1.187 -2.182,-1.187 -0.387,0 -2.394,0.764 -2.402,0.934 -0.006,0.074 -1.428,0.668 -1.702,0.909 -0.222,0.195 -1.702,0.947 -2.758,1.303 -0.062,0.022 -0.318,-0.004 -0.399,-0.069 -0.701,-0.67 -1.065,-2.2 -2.053,-3.318 -0.566,-0.63 -1.622,-1.374 -2.038,-1.653 -0.018,-0.012 -0.813,-0.538 -0.982,-0.601 -0.231,-0.12 -1.296,-0.647 -1.964,-0.832 -0.64,-0.111 -1.547,-0.31 -2.278,-0.31 l -0.87,0 c -0.185,0 -1.938,0.166 -2.122,0.166 -2.469,0 -5.904,1.33 -7.144,2.689 0,0 -0.818,0.633 -1.085,0.735 l -0.934,0.447 c -0.853,0.479 -1.865,1.924 -1.954,2.025 -0.227,0.272 -0.319,0.56 -0.558,0.6 0,0 -0.298,0.018 -0.384,-0.172 -0.439,-0.87 -1.821,-3.953 -2.315,-4.317 -0.49,-0.643 -1.086,-1.464 -1.373,-1.894 -0.015,-0.022 -1.058,-1.2 -1.658,-1.585 -0.498,-0.466 -2.424,-1.408 -2.83,-1.472 -1.221,-0.727 -5.08,-0.916 -5.262,-0.942 -0.432,-0.061 -2.496,0.037 -2.82,0.058 0,0 -0.445,-0.009 -0.504,0.08 -0.055,-0.003 -0.012,-0.012 -0.089,0.013 -0.958,0.041 -3.413,0.959 -3.488,0.984 0.262,-0.125 -0.393,0.201 -0.621,0.263 -1.261,0.344 -4.918,2.954 -4.928,2.887 l -1.677,1.371 c -0.353,0.246 -1.806,1.63 -1.956,1.767 -0.099,0.09 -2.985,2.756 -3.439,3.546 -0.223,0.34 -0.313,0.504 -0.313,0.63 0,0.127 0.147,0.025 0.147,0.152 0,0.126 -0.037,0.303 -0.218,0.318 0,0 -0.234,0.188 -0.152,0.568 0.045,0.086 -0.127,0.272 -0.127,0.272 -0.062,0.031 -0.428,0.328 -0.295,0.467 0.128,0.011 0.645,-0.421 0.645,-0.421 0.184,0.008 0.223,-0.012 0.223,-0.012 -0.072,0.084 -0.212,0.166 -0.334,0.23 0,0 -0.181,0.23 -0.088,0.343 0.288,0.062 0.553,-0.205 0.827,-0.352 0.117,0.065 0.069,0.314 0.276,0.351 0.095,0.003 0.273,-0.06 0.32,-0.111 0.269,-0.373 0.699,-0.53 0.699,-0.441 0,0.126 -0.206,0.223 -0.384,0.372 -0.055,0.142 -0.671,0.578 -0.366,0.577 0.225,0.087 1.044,-0.411 1.087,-0.546 0.394,0.186 0.159,0.155 0.159,0.407 0,0.127 -0.195,0.032 -0.159,0.257 -0.036,0.223 0.263,0.179 0.43,0.194 0.227,-0.051 0.319,-0.183 0.507,-0.249 0.313,-0.065 0.552,-0.045 0.552,-0.045 0.169,0.085 0.107,0.098 0.405,0.189 0.512,0.022 0.521,-0.327 0.704,-0.327 0.186,0 0.356,0.08 0.602,0.074 0.246,-0.004 0.639,-0.316 0.887,-0.351 0.316,-0.003 1.048,0.079 1.06,0.148 0.435,-0.013 0.94,-0.506 1.096,-0.615 0.003,-0.06 0.188,-0.26 0.406,-0.357 0.328,-0.294 1.065,-0.898 1.223,-1.012 0.193,-0.258 3.146,-2.736 3.36,-2.93 0.047,0.043 2.837,-2.117 2.962,-2.191 0.864,-0.519 2.248,-0.761 2.423,-0.761 0.442,0.063 1.047,0.382 1.384,0.726 0.766,0.701 1.882,2.826 1.882,2.953 0,0.114 0.625,0.869 0.504,0.814 0.174,0.767 1.242,2.509 1.242,3.026 0,0.953 3.435,3.913 4.717,3.682 0.079,-0.053 0.24,-0.089 0.419,-0.115 C -1.262,-0.328 -0.685,0 0,0"
             inkscape:connector-curvature="0" />
        </g>
      </g>
    </g>
  </g>
</svg>
